<svg width="209" height="209" viewBox="0 0 209 209" fill="none" xmlns="http://www.w3.org/2000/svg">
<rect width="209" height="209" rx="40" fill="#7FF5E0"/>
<rect x="79" y="53" width="108" height="51.2031" rx="25.6015" fill="white"/>
<path d="M162.59 129C162.59 129 163.454 106.922 160 102.959C169.498 89.939 188.184 67.4082 186.941 81.4475C185.697 95.4868 170.189 118.999 162.59 129Z" fill="white"/>
<path d="M41.5717 119H28.0012V83.6409H40.9847C48.5123 83.6409 52.138 87.6809 52.138 92.9296C52.138 97.3322 49.4446 99.5594 46.1642 100.388V100.733C49.6863 100.923 53.5192 104.014 53.5192 109.487C53.5192 114.908 49.7899 119 41.5717 119ZM33.3707 88.2334V98.9206H40.5012C44.0924 98.9206 46.8548 96.7624 46.8548 93.3439C46.8548 90.4434 44.8521 88.2334 40.6394 88.2334H33.3707ZM33.3707 103.116V114.39H41.0537C46.147 114.39 48.1843 112.163 48.1843 109.228C48.1843 105.844 45.5081 103.116 41.2436 103.116H33.3707ZM80.4606 119H59.0862V83.6409H64.4557V114.373H80.4606V119ZM116.506 119H110.791L107.562 109.66H93.7845L90.5559 119H84.8584L97.5656 83.6409H103.798L116.506 119ZM100.535 90.0981L95.3384 105.153H106.008L100.811 90.0981H100.535ZM144.056 83.6409H149.373V119H144.436L126.514 93.1713H126.186V119H120.817V83.6409H125.806L143.728 109.521H144.056V83.6409ZM161.763 119H156.394V83.6409H161.763V100.509H162.23L177.009 83.6409H183.759L169.516 99.5594L183.811 119H177.319L165.959 103.22L161.763 108.037V119Z" fill="black"/>
<ellipse cx="38" cy="85.5" rx="6" ry="10.5" fill="white"/>
<ellipse cx="49" cy="85.5" rx="6" ry="10.5" fill="white"/>
<ellipse cx="41" cy="85.5" rx="3" ry="5.5" fill="#0F0F0F"/>
<ellipse cx="52" cy="85.5" rx="3" ry="5.5" fill="#0F0F0F"/>
</svg>
